<?xml version="1.0" encoding="UTF-8" standalone="no"?>
<svg
   width="535.07983pt"
   height="333.8215pt"
   version="1.1"
   viewBox="0 0 535.07983 333.8215"
   id="svg6"
   xmlns="http://www.w3.org/2000/svg"
   xmlns:svg="http://www.w3.org/2000/svg">
  <g
     id="g4"
     transform="translate(-90.444,-109.30598)">
    <path
       d="m 584.81,284.65 c -0.72656,-73.473 -37.742,-133.95 -52.527,-155.18 -9.7422,-14 -54.375,-13.215 -69.832,-12.488 -11.023,-4.6367 -22.824,-7.1445 -34.777,-7.3906 -27.105,-1.3438 -62.215,1.457 -79.633,21.504 h -125.94 c -2.9688,0.39062 -60.258,8.5664 -88.594,49.281 v -0.004 c -6.9688,-0.1875 -13.785,2.0742 -19.266,6.3867 -15.285,11.645 -23.293,37.238 -23.797,76.047 h 11.199 c 0.55859,-43.457 10.695,-60.426 19.152,-67.199 1.6914,-1.3281 3.582,-2.3867 5.5977,-3.1367 -2.9648,6.2617 -5.168,12.863 -6.5508,19.656 -7.0547,33.992 -0.89453,56 7.3359,70.281 l -10.75,160.72 h 147.56 l 0.44922,-5.0977 c 1.2031,-7.2852 -0.84375,-14.734 -5.6016,-20.383 -6.0625,-8.1641 -9.7109,-17.863 -10.527,-28 -2.9492,-17.766 3.3867,-35.805 16.801,-47.824 19.996,2.5195 40.227,2.6484 60.254,0.39062 1.8477,14.895 2.8555,34.496 0,40.039 -6.3828,11.762 -4.9297,38.359 -4.7617,41.328 l 0.33594,5.2656 h 49.281 v 14.113 h 88.145 l -1.2305,-6.6641 c -0.28125,-1.625 -1.8477,-9.6875 -4.2578,-18.426 8.7852,6.4414 18.82,10.98 29.457,13.328 4.1992,0.88281 8.4766,1.332 12.77,1.3438 21.504,0 51.574,-11.199 73.809,-65.129 h -0.004 c 6.5273,-15.73 11.098,-32.207 13.609,-49.055 13.676,2.375 27.508,3.7422 41.383,4.0898 l 0.33594,-11.199 v -0.004 c -13.52,-0.31641 -26.996,-1.6445 -40.32,-3.9727 0.33594,-3.8086 0.61719,-7.6172 0.72656,-11.199 l 0.004,-0.004 c 6.1133,0.95313 12.293,1.4375 18.48,1.457 7.5508,0.0859 15.082,-0.82031 22.398,-2.6875 l -2.9102,-10.809 c -12.434,2.7305 -25.285,2.9414 -37.801,0.61719 z M 237.05,391.61 c 1.1172,11.805 5.457,23.082 12.547,32.59 1.9609,2.1445 3.2656,4.8086 3.75,7.6719 h -55.383 c -3.7539,-10.473 -10.137,-31.191 -9.0156,-42.895 1.457,-14.84 28.617,-51.07 44.801,-57.68 h -0.004 c 5.1562,4.3672 11.414,7.2344 18.09,8.2891 -12.527,14.223 -17.977,33.332 -14.84,52.023 z m 94.305,26.207 c 0,-10.305 0.55859,-24.359 3.6406,-30.07 5.2656,-9.8008 2.9102,-34.887 1.3438,-46.984 11.656,-1.8086 22.98,-5.3398 33.602,-10.473 v 87.527 z M 381.14,431.93 V 309.06 l -8.7383,6.7773 c -24.023,17.922 -77.727,19.434 -108.25,14.559 -6.0586,-0.78125 -12.012,-2.2266 -17.754,-4.3086 7.3359,-4.9844 16.801,-15.961 19.152,-39.648 l -11.199,-1.0625 c -2.8008,29.848 -18.312,33.602 -18.93,33.602 -22.398,3.1914 -56,49.113 -57.625,68.602 -1.2891,13.273 4.5938,33.152 8.2891,43.961 l -57.68,-0.008 9.1289,-136.3 c 2.8359,2.8125 6.0352,5.2227 9.5195,7.168 l 5.0391,-9.9688 c -0.33594,0 -33.602,-17.922 -21.281,-78.398 11.988,-58.297 86.746,-70.895 92.402,-71.734 h 117.94 c -5.0391,12.375 -4.0312,27.609 3.2461,45.473 19.379,47.43 69.723,79.406 121.3,81.031 -14.617,15.062 -22.848,39.199 -27.441,59.305 h 0.004 c -9.4766,12.539 -14.875,27.691 -15.457,43.398 0.80859,11.609 5.5273,22.605 13.383,31.191 l -0.83984,0.67188 c 4.4375,9.0508 7.5703,18.688 9.2969,28.617 z M 499.58,274.4 c 12.434,20.328 11.871,33.602 10.137,40.434 -22.398,-13.047 -40.543,-9.1836 -51.91,-3.2461 -1.3438,0.72656 -2.6875,1.457 -3.9766,2.2969 7.6719,-23.688 18.648,-39.535 31.754,-45.473 2.9688,-0.33594 5.9375,-0.72656 8.9023,-1.3438 1.5664,2.3477 3.3047,4.7578 5.0938,7.332 z m 59.023,89.039 c -17.809,43.008 -44.016,63.281 -73.977,57.121 -29.957,-6.1602 -50.621,-34.16 -50.621,-48.887 0.61719,-14.008 5.6992,-27.449 14.504,-38.359 3.9258,-4.918 8.8008,-8.9922 14.336,-11.984 13.664,-7.1133 29.512,-5.0977 45.586,5.6016 8.3438,6.2148 11.199,22.008 6.7773,35.953 l -0.004,-0.004 c -1.3984,5.4648 -4.5234,10.332 -8.9141,13.875 -4.3906,3.543 -9.8086,5.5703 -15.445,5.7812 -16.801,0 -20.551,-10.754 -21.559,-15.457 -1.1289,-5.043 -0.5625,-10.32 1.6133,-15.008 2.1797,-4.6875 5.8438,-8.5273 10.426,-10.918 8.0625,-3.5859 10.191,0 10.922,1.1211 h -0.004 c 1.5391,2.9844 2.1484,6.3594 1.75,9.6953 -0.39844,3.332 -1.7891,6.4688 -3.9883,9.0078 l 6.7773,8.625 c 4.332,-4.2227 7.1797,-9.7344 8.1211,-15.711 0.9375,-5.9766 -0.0859,-12.098 -2.9141,-17.441 -4.9297,-8.2305 -14.281,-10.305 -25.031,-5.6016 -7.0156,3.4141 -12.66,9.1055 -16.02,16.145 -3.3555,7.0391 -4.2227,15.012 -2.4609,22.609 1.5352,7.25 5.6367,13.703 11.555,18.172 5.918,4.4648 13.25,6.6406 20.645,6.1289 h 0.39062 c 8.0117,-0.12109 15.762,-2.8633 22.062,-7.8086 6.3,-4.9453 10.809,-11.82 12.828,-19.574 5.6016,-16.352 2.3516,-34.441 -6.8867,-44.801 h -0.004 c 3.1953,-8.832 3.5859,-18.434 1.1211,-27.496 15.48,10.695 32.938,18.199 51.352,22.066 -2.375,16.117 -6.7383,31.883 -12.992,46.926 z M 508.205,267.4 c -0.72656,-1.1211 -1.3438,-2.2383 -2.1289,-3.4141 -1.2305,-1.793 -2.4062,-3.5859 -3.4727,-5.6016 l -2.5195,-4.3125 -4.0312,0.95313 c -7.4609,1.7148 -15.078,2.6719 -22.734,2.8555 -5.2656,-15.398 -9.2383,-37.406 -2.6875,-43.398 l -7.5586,-8.2891 c -12.152,11.199 -5.9375,37.688 -1.6797,51.352 -45.641,-3.3047 -89.602,-32.145 -106.4,-74.145 -7.3906,-18.145 -7.4492,-32.535 0,-42.785 10.414,-14.672 36.176,-21.785 72.52,-19.938 25.703,1.2891 36.848,8.457 41.664,14.281 l -0.004,0.004 c 2.9648,3.4961 4.418,8.0312 4.0312,12.598 l 11.199,1.793 c 0.76562,-7.6055 -1.5781,-15.199 -6.4961,-21.055 l -0.39062,-0.39062 c 21.504,0 42.223,2.8555 45.977,8.2891 15.344,22.062 56.559,89.602 49.504,168.84 -29.289,-6.9453 -50.793,-19.434 -64.625,-37.859 z"
       id="path2" />
  </g>
</svg>
