<?xml version="1.0" encoding="UTF-8" standalone="no"?>
<svg
   width="480.22pt"
   height="548.48407pt"
   version="1.1"
   viewBox="0 0 480.22 548.48407"
   id="svg205"
   xmlns="http://www.w3.org/2000/svg"
   xmlns:svg="http://www.w3.org/2000/svg">
  <g
     id="g203"
     transform="translate(-109.88662,-5.7534484)">
    <path
       d="m 192.47,389.07 h 79.246 v -291 c 0,-6.082 4.2344,-11.172 9.8945,-12.5 l 292.27,-79.363 c 6.8359,-1.8633 13.91,2.1836 15.773,9.0391 0.30078,1.125 0.4375,2.25 0.45312,3.3594 v 349.49 c 0,22.715 -9.2891,43.359 -24.242,58.332 -14.969,14.969 -35.617,24.242 -58.332,24.242 h -22.379 c -22.715,0 -43.359,-9.2891 -58.332,-24.242 -14.969,-14.969 -24.242,-35.617 -24.242,-58.332 0,-22.73 9.2891,-43.379 24.242,-58.332 14.969,-14.969 35.617,-24.242 58.332,-24.242 h 79.246 v -138.77 l -266.97,72.492 v 252.42 c 0,22.715 -9.2891,43.359 -24.258,58.332 -14.953,14.969 -35.598,24.242 -58.332,24.242 h -22.379 c -22.715,0 -43.359,-9.2891 -58.332,-24.242 -14.969,-14.969 -24.242,-35.617 -24.242,-58.332 0,-22.73 9.2891,-43.379 24.242,-58.332 14.969,-14.969 35.617,-24.242 58.332,-24.242 z m 371.94,-20.918 v -56.934 h -79.246 c -15.625,0 -29.836,6.4023 -40.152,16.715 -10.316,10.316 -16.715,24.527 -16.715,40.152 0,15.625 6.4023,29.836 16.715,40.152 10.316,10.316 24.527,16.715 40.152,16.715 h 22.379 c 15.625,0 29.836,-6.4023 40.152,-16.715 10.297,-10.297 16.699,-24.477 16.715,-40.086 z m 0,-332.74 -266.97,72.492 v 84.691 L 564.41,120.103 V 35.396 Z m -292.68,379.38 h -79.246 c -15.625,0 -29.836,6.4023 -40.152,16.715 -10.316,10.316 -16.715,24.527 -16.715,40.152 0,15.625 6.4023,29.836 16.715,40.152 10.316,10.316 24.527,16.715 40.152,16.715 h 22.379 c 15.625,0 29.836,-6.4023 40.152,-16.715 10.316,-10.316 16.715,-24.527 16.715,-40.152 z"
       id="path201" />
  </g>
</svg>
