<?xml version="1.0" encoding="UTF-8" standalone="no"?>
<svg
   width="349.996pt"
   height="416.73337pt"
   version="1.1"
   viewBox="0 0 349.996 416.73337"
   id="svg178"
   xmlns="http://www.w3.org/2000/svg"
   xmlns:svg="http://www.w3.org/2000/svg">
  <g
     fill-rule="evenodd"
     id="g176"
     transform="translate(-175.002,-61.596642)">
    <path
       d="m 256.67,338.33 c -32.219,0 -58.336,26.117 -58.336,58.336 0,32.215 26.117,58.332 58.336,58.332 32.215,0 58.332,-26.117 58.332,-58.332 0,-32.219 -26.117,-58.336 -58.332,-58.336 z m -81.668,58.336 c 0,-45.105 36.562,-81.668 81.668,-81.668 45.102,0 81.664,36.562 81.664,81.668 0,45.102 -36.562,81.664 -81.664,81.664 -45.105,0 -81.668,-36.562 -81.668,-81.664 z"
       id="path170" />
    <path
       d="m 338.33,81.668 v 320.83 H 314.998 V 81.668 Z"
       id="path172" />
    <path
       d="m 315,84.941 c 0,-15.18 14.266,-26.316 28.992,-22.637 l 163.33,40.836 c 10.391,2.5938 17.676,11.93 17.676,22.637 v 69.281 c 0,15.18 -14.266,26.316 -28.992,22.637 L 332.676,176.859 C 322.285,174.2652 315,164.929 315,154.222 Z M 501.67,125.777 338.33,84.941 v 69.281 l 163.34,40.836 z"
       id="path174" />
  </g>
</svg>
