<?xml version="1.0" encoding="UTF-8" standalone="no"?>
<svg
   width="398.10837pt"
   height="513.85852pt"
   version="1.1"
   viewBox="0 0 398.10837 513.85852"
   id="svg230"
   xmlns="http://www.w3.org/2000/svg"
   xmlns:svg="http://www.w3.org/2000/svg">
  <g
     id="g228"
     transform="translate(-150.91449,-23.092364)">
    <path
       d="m 532,317.5 c -2.7695,-16.957 -19.395,-29.871 -39.141,-29.871 v -0.004 c -5.5938,-0.004 -11.133,1.0469 -16.336,3.0977 -5.1992,-2.0508 -10.742,-3.1016 -16.332,-3.0977 -8.2734,-0.30859 -16.434,2.0234 -23.297,6.6562 -6.8672,4.6328 -12.078,11.328 -14.887,19.117 -15.902,6.3828 -25.34,17.195 -25.34,29.281 0.0977,5.668 2.1172,11.133 5.7344,15.5 l -19.004,14.25 c -2.6367,-28.176 -4.7891,-56.211 -6.8594,-83.492 h -0.004 c 5.8398,1.8008 11.914,2.7109 18.027,2.707 16.355,-0.0117 32.043,-6.5156 43.609,-18.082 11.57,-11.566 18.078,-27.25 18.094,-43.609 0,-0.95703 0,-1.9141 -0.0625,-2.8711 9.582,-5.3281 17.559,-13.133 23.098,-22.594 5.5391,-9.4609 8.4414,-20.238 8.4023,-31.203 -0.0547,-11.828 -3.4883,-23.398 -9.8984,-33.344 -6.4062,-9.9492 -15.52,-17.859 -26.27,-22.801 v -0.51172 c 0.0312,-13.395 -4.3086,-26.429996 -12.363,-37.132996 -8.0547,-10.699 -19.379,-18.48 -32.258,-22.16 -7.1914,-14.473 -19.777,-25.551 -35.051,-30.844 -15.273,-5.2891 -32.016,-4.3789 -46.621,2.543 -14.609,6.9219 -25.918,19.301 -31.492,34.473 -16.102,2.9961 -30.352,12.266 -39.613,25.773 -9.2617,13.503996 -12.773,30.136996 -9.7656,46.233996 -14.52,8.6719 -24.84,22.926 -28.547,39.426 -3.707,16.5 -0.48047,33.801 8.9336,47.852 9.4102,14.051 24.176,23.621 40.844,26.473 4.0742,12.32 11.922,23.047 22.434,30.656 10.512,7.6133 23.152,11.719 36.129,11.742 0.65234,0 1.3125,0 1.9648,-0.0352 -1.2656,15.68 -2.7578,32.586 -4.5078,50.074 l -25.082,-18.129 v -0.004 c 4.2422,-4.5781 6.6602,-10.555 6.793,-16.801 0,-12.094 -9.4258,-22.906 -25.363,-29.289 -2.8125,-7.793 -8.0312,-14.492 -14.902,-19.121 -6.8711,-4.6328 -15.035,-6.9609 -23.316,-6.6445 -5.5898,-0.008 -11.133,1.043 -16.332,3.0938 -5.2031,-2.0508 -10.742,-3.1016 -16.336,-3.0938 -19.746,0 -36.371,12.91 -39.141,29.867 -9.7539,4.7695 -16.238,14.359 -17.027,25.188 0,19.559 24.668,34.879 56.168,34.879 h 0.29688 c 7.5547,12.234 21.012,19.566 35.387,19.285 12.117,0.19922 23.715,-4.9141 31.734,-14 l 41.871,41.516 c -7,54.625 -28.051,119.41 -55.305,139.42 -1.7539,1.2852 -2.4805,3.5508 -1.8047,5.6172 0.67578,2.0664 2.6055,3.4648 4.7773,3.4648 h 170.71 c 2.1172,0 4.0078,-1.3281 4.7266,-3.3203 0.72266,-1.9922 0.11719,-4.2227 -1.5156,-5.5742 -22.781,-18.953 -43.805,-65.004 -49.527,-108.06 l 35.926,-38.5 c 7.9688,9.9219 20.086,15.598 32.812,15.363 14.375,0.28125 27.828,-7.0508 35.387,-19.285 h 0.29688 c 31.5,0 56.168,-15.324 56.168,-34.883 -0.78125,-10.832 -7.2695,-20.426 -17.027,-25.191 z M 324.16,281.59 c -11.344,-0.0117 -22.367,-3.7539 -31.375,-10.648 -9.0078,-6.8945 -15.496,-16.559 -18.473,-27.504 -0.53516,-1.9883 -2.2305,-3.4492 -4.2812,-3.6875 -14.762,-1.7031 -28.074,-9.6875 -36.527,-21.91 -8.457,-12.223 -11.234,-27.492 -7.625,-41.91 3.6094,-14.414 13.258,-26.578 26.473,-33.371 2.0781,-1.0742 3.1406,-3.4336 2.5664,-5.6992 -3.6094,-14.285 -0.94922,-29.43 7.3125,-41.629 8.2578,-12.203 21.332,-20.297 35.938,-22.246 1.9453,-0.26172 3.5625,-1.625 4.1445,-3.5 4.1641,-13.453 13.637,-24.621 26.23,-30.918 12.59,-6.3008 27.211,-7.1836 40.469,-2.4492 13.262,4.7344 24.012,14.68 29.762,27.531 0.63672,1.4141 1.8906,2.457 3.3945,2.8242 11.234,2.7344 21.219,9.1719 28.352,18.27 7.1289,9.1016 10.992,20.336 10.961,31.898 0,1.0312 -0.0391,2.1289 -0.12891,3.4609 v -0.004 c -0.14453,2.1953 1.1562,4.2305 3.207,5.0234 9.707,3.7891 18.051,10.41 23.945,19 5.8984,8.5938 9.0742,18.758 9.1211,29.176 0.0352,9.668 -2.6602,19.145 -7.7695,27.348 -5.1133,8.2031 -12.438,14.793 -21.129,19.016 -1.8867,0.92969 -3,2.9336 -2.7891,5.0234 1.8398,17.918 -5.7891,35.5 -20.133,46.398 -14.344,10.895 -33.328,13.531 -50.094,6.9531 -1.2383,-16.332 -2.4336,-31.773 -3.6523,-46.023 l 24.605,-45.297 c 1.9805,-3.5195 2.4648,-7.6875 1.3477,-11.57 -1.1172,-3.8789 -3.7461,-7.1484 -7.2969,-9.0781 -3.5469,-1.9297 -7.7227,-2.3516 -11.586,-1.1797 -3.8633,1.1758 -7.0977,3.8477 -8.9727,7.4258 l -19.66,36.168 -20.477,-35 h 0.004 c -2.7734,-4.5391 -7.7344,-7.2812 -13.055,-7.2188 -5.3164,0.0625 -10.211,2.9258 -12.875,7.5273 -2.6641,4.6055 -2.707,10.273 -0.10938,14.914 l 26.25,44.918 c -0.80078,13.188 -1.8828,29.539 -3.3008,47.914 -0.92969,0.0117 -1.8516,0.0547 -2.7734,0.0547 z m -81.34,69.285 c -5.6953,0.21094 -11.336,-1.2148 -16.246,-4.1094 -4.91,-2.8946 -8.8906,-7.1367 -11.469,-12.223 -0.79688,-1.832 -2.6055,-3.0195 -4.6094,-3.0195 h -0.19141 c -1.0508,0.0391 -2.1016,0.0625 -3.168,0.0625 -24.996,0 -46.113,-11.363 -46.113,-24.82 0,-6.457 5.1094,-12.879 14,-17.629 1.5312,-0.8125 2.5352,-2.3555 2.6562,-4.082 0.94531,-13.066 13.871,-23.305 29.434,-23.305 4.8984,-0.0117 9.7422,1.0352 14.199,3.0742 1.3438,0.625 2.8945,0.625 4.2344,0 4.457,-2.0352 9.3008,-3.0859 14.199,-3.0742 6.4531,-0.38281 12.84,1.4414 18.121,5.1719 5.2773,3.7305 9.1328,9.1406 10.93,15.348 0.35156,1.7188 1.5781,3.125 3.2305,3.7109 13.086,4.668 21.211,12.617 21.211,20.773 0,7.5078 -6.8594,14.859 -18.348,19.652 -1.5508,0.64453 -2.6758,2.0234 -2.9961,3.6758 -1.7266,6.2734 -5.5547,11.766 -10.848,15.555 -5.2969,3.7852 -11.73,5.6367 -18.227,5.2383 z m 138.32,62.172 -0.12891,0.0586 c -1.9961,0.90234 -3.1758,2.9961 -2.918,5.168 4.8359,41.223 22.785,84.379 44.332,108.6 l -145.5,0.004 c 26.004,-29.008 43.777,-90.188 49.789,-139.67 v -0.004 c 0.1875,-1.5391 -0.34766,-3.0781 -1.4492,-4.1758 l -45.312,-44.918 v 0.004 c 0.46484,-1.1211 0.87109,-2.2656 1.207,-3.4297 2.6406,-1.2305 5.1758,-2.6719 7.5859,-4.3086 l 34.051,24.582 h -0.004 c 1.457,1.0508 3.3594,1.2461 5,0.51172 1.6367,-0.73047 2.7617,-2.2852 2.9453,-4.0703 4.8633,-46.91 7.9141,-90.445 9.6211,-118.71 0.0547,-0.99219 -0.17969,-1.9805 -0.68359,-2.8398 l -27.008,-46.23 c -1.3359,-2.3906 -0.51562,-5.4102 1.8516,-6.793 2.3633,-1.3828 5.3984,-0.61719 6.8281,1.7188 l 24.977,42.723 c 0.90234,1.543 2.5547,2.4922 4.3398,2.4922 h 0.0781 c 1.8125,-0.0234 3.4766,-1.0273 4.3398,-2.625 L 379,177.12312 h -0.004 c 0.63672,-1.1719 1.7148,-2.043 2.9922,-2.4219 1.2812,-0.37891 2.6562,-0.23438 3.8281,0.40234 2.4414,1.3242 3.3438,4.3789 2.0195,6.8203 l -25.328,46.613 c -0.46484,0.86719 -0.66797,1.8516 -0.58594,2.8359 1.4336,16.574 2.8242,34.883 4.3008,54.25 2.3867,31.5 4.8594,64.016 8.0391,96.676 0.17188,1.8086 1.3086,3.3828 2.9727,4.1172 1.6641,0.7344 3.5938,0.51172 5.0469,-0.58203 l 27.504,-20.621 c 2.8359,2.0781 5.875,3.8672 9.0664,5.3438 0.15234,0.53125 0.32031,1.0508 0.49609,1.5625 z m 111.71,-45.551 c -1.0664,0 -2.1172,-0.0273 -3.168,-0.0625 -2.0703,-0.082 -3.9766,1.1133 -4.8008,3.0156 -2.5781,5.082 -6.5586,9.3242 -11.469,12.219 -4.9104,2.8948 -10.551,4.3203 -16.246,4.1133 -6.4961,0.40234 -12.938,-1.4453 -18.234,-5.2266 -5.2969,-3.7852 -9.1328,-9.2734 -10.863,-15.551 -0.32031,-1.6523 -1.4453,-3.0312 -2.9961,-3.6758 -11.484,-4.7969 -18.348,-12.145 -18.348,-19.66 0,-8.168 8.125,-16.105 21.211,-20.766 1.6523,-0.58594 2.8789,-1.9922 3.2305,-3.7109 1.8008,-6.207 5.6523,-11.617 10.934,-15.348 5.2773,-3.7266 11.664,-5.5508 18.117,-5.1719 4.8984,-0.0156 9.7422,1.0352 14.199,3.0742 1.3438,0.625 2.8906,0.625 4.2344,0 4.4531,-2.0391 9.2969,-3.0898 14.199,-3.0742 15.562,0 28.488,10.238 29.434,23.332 0.12109,1.7305 1.125,3.2734 2.6562,4.082 8.9141,4.75 14,11.172 14,17.621 0.0508,13.43 -21.094,24.789 -46.09,24.789 z"
       id="path226" />
  </g>
</svg>
