<?xml version="1.0" standalone="no"?>
<!DOCTYPE svg PUBLIC "-//W3C//DTD SVG 20010904//EN"
 "http://www.w3.org/TR/2001/REC-SVG-20010904/DTD/svg10.dtd">
<svg version="1.0" xmlns="http://www.w3.org/2000/svg"
 width="512.000000pt" height="512.000000pt" viewBox="0 0 512.000000 512.000000"
 preserveAspectRatio="xMidYMid meet">
<metadata>
Created by potrace 1.14, written by Peter Selinger 2001-2017
</metadata>
<g transform="translate(0.000000,512.000000) scale(0.100000,-0.100000)"
fill="#000000" stroke="none">
<path d="M1603 3956 c-391 -75 -677 -348 -779 -744 -19 -71 -27 -135 -31 -237
-20 -504 157 -880 488 -1035 202 -94 532 -106 715 -25 75 33 173 104 218 157
l36 43 0 -487 0 -488 90 0 90 0 0 845 0 845 -89 0 -88 0 -6 -187 c-6 -201 -16
-255 -63 -349 -51 -100 -163 -197 -272 -235 -116 -41 -340 -40 -462 1 -162 54
-291 171 -370 334 -59 123 -87 231 -102 398 -11 121 -2 309 17 360 6 15 52 17
533 20 506 4 530 5 607 26 164 45 265 115 315 217 20 41 24 66 25 140 0 79 -3
97 -28 147 -54 109 -183 197 -350 239 -107 27 -387 35 -494 15z m316 -156
c154 -16 271 -58 323 -117 78 -87 57 -235 -42 -295 -90 -55 -140 -60 -667 -65
-266 -3 -483 -2 -483 1 0 13 44 92 82 149 127 188 328 303 568 327 111 11 110
11 219 0z"/>
<path d="M2720 3855 l0 -85 360 0 360 0 0 -940 0 -940 90 0 90 0 0 940 0 940
360 0 360 0 0 85 0 85 -810 0 -810 0 0 -85z"/>
</g>
</svg>
