<?xml version="1.0" encoding="UTF-8" standalone="no"?>
<svg
   width="361.90802pt"
   height="249.9458pt"
   version="1.1"
   viewBox="0 0 361.90802 249.9458"
   id="svg36"
   xmlns="http://www.w3.org/2000/svg"
   xmlns:svg="http://www.w3.org/2000/svg">
  <g
     id="g34"
     transform="translate(-168.67537,-155.0322)">
    <path
       d="m 483.96,234.79 c -10.109,-21.344 -31.453,-34.262 -55.047,-34.824 h -70.207 v -36.508 c 0,-4.4922 -3.9336,-8.4258 -8.4258,-8.4258 -4.4922,0 -8.4258,3.9336 -8.4258,8.4258 v 36.508 h -71.332 c -23.59,0 -44.934,13.48 -55.047,34.824 l -41.004,85.375 c -14.043,29.207 -1.6836,64.594 27.523,78.637 29.207,14.043 64.594,1.6836 78.637,-27.523 0.5625,-0.5625 0.5625,-1.125 1.125,-1.6836 2.2461,-5.6172 7.8633,-8.9883 14.043,-8.9883 h 107.28 c 6.1797,0 11.797,3.3711 14.043,8.9883 7.3008,16.852 22.469,29.77 40.441,33.699 4.4922,1.125 8.9883,1.6836 14.043,1.6836 32.578,0 58.977,-26.961 58.977,-59.539 0,-8.9883 -2.2461,-17.414 -5.6172,-25.277 z m 14.605,143.79 c -17.973,14.605 -44.375,12.355 -59.539,-5.6172 -2.2461,-2.8086 -4.4922,-6.1797 -6.1797,-10.109 -5.0547,-11.797 -16.852,-19.098 -29.77,-19.098 h -106.72 c -12.918,0 -24.152,7.8633 -29.77,19.098 -9.5469,21.344 -34.262,31.453 -55.605,21.906 -21.343,-9.547 -31.453,-34.262 -21.906,-55.605 0,-0.5625 0.5625,-1.125 0.5625,-1.6836 l 41,-85.941 c 7.3008,-15.164 23.027,-24.715 39.879,-25.277 h 158.39 c 16.852,0 32.578,9.5469 39.879,25.277 l 41.004,85.938 c 8.4297,17.414 3.9336,38.758 -11.23,51.113 z"
       id="path22" />
    <path
       d="m 424.42,256.13 c 0,-0.5625 -0.5625,-1.125 -0.5625,-1.6836 -1.125,-1.6836 -2.2461,-2.8086 -3.9336,-2.8086 -1.125,-0.5625 -5.6172,-1.125 -6.7383,0 -0.5625,0 -1.125,0.5625 -1.6836,0.5625 -0.5625,0.5625 -1.125,0.5625 -1.125,1.125 l -1.125,1.125 c -2.2461,3.3711 -1.125,7.8633 1.125,10.672 0.5625,0.5625 1.6836,1.6836 2.8086,1.6836 2.2461,0.5625 4.4922,0.5625 6.1797,0 4.4922,-1.6836 5.6172,-5.6172 5.0547,-9.5469 0.5625,-0.008 0,-0.56641 0,-1.1289 z"
       id="path24" />
    <path
       d="m 410.94,296.01 c -3.3711,3.3711 -2.8086,8.9883 0,12.355 0.5625,0.5625 1.6836,1.6836 2.8086,1.6836 2.2461,0.5625 4.4922,0.5625 6.1797,0 1.125,-0.5625 1.6836,-1.125 2.8086,-1.6836 0.5625,-0.5625 1.6836,-1.6836 1.6836,-2.8086 1.125,-3.3711 0,-6.7383 -1.6836,-9.5469 -3.3711,-3.3711 -8.4258,-3.3711 -11.797,0 z"
       id="path26" />
    <path
       d="m 440.71,288.71 c 0.5625,0 1.125,-0.5625 1.6836,-0.5625 1.6836,-1.125 2.8086,-2.2461 2.8086,-3.9336 0.5625,-1.125 1.125,-5.6172 0,-6.7383 0,-0.5625 -0.5625,-1.125 -0.5625,-1.6836 -0.5625,-0.5625 -0.5625,-1.125 -1.125,-1.125 l -1.125,-1.125 c -3.3711,-2.2461 -7.8633,-1.125 -10.672,1.125 -0.5625,0.5625 -1.6836,1.6836 -1.6836,2.8086 -0.5625,2.2461 -0.5625,4.4922 0,6.1797 1.6836,4.4922 5.6172,5.6172 9.5469,5.0547 0.008,0.5625 0.57031,0 1.1289,0 z"
       id="path28" />
    <path
       d="m 400.83,274.66 c -3.3711,-3.3711 -8.9883,-2.8086 -12.355,0 -0.5625,0.5625 -1.6836,1.6836 -1.6836,2.8086 -0.5625,2.2461 -0.5625,4.4922 0,6.1797 0.5625,1.125 1.125,1.6836 1.6836,2.8086 0.5625,0.5625 1.6836,1.6836 2.8086,1.6836 3.3711,1.125 6.7383,0 9.5469,-1.6836 3.3711,-3.3711 3.3711,-8.4258 0,-11.797 z"
       id="path30" />
    <path
       d="m 304.22,272.42 h -12.918 v -12.918 c 0,-4.4922 -3.9336,-8.4258 -8.4258,-8.4258 -4.4922,0 -8.4258,3.9336 -8.4258,8.4258 v 12.918 h -12.918 c -4.4922,0 -8.4258,3.9336 -8.4258,8.4258 0,4.4922 3.9336,8.4258 8.4258,8.4258 h 12.918 v 12.918 c 0,4.4922 3.9336,8.4258 8.4258,8.4258 4.4922,0 8.4258,-3.9336 8.4258,-8.4258 v -12.918 h 12.918 c 4.4922,0 8.4258,-3.9336 8.4258,-8.4258 0,-4.4961 -3.3711,-8.4258 -8.4258,-8.4258 z"
       id="path32" />
  </g>
</svg>
