<?xml version="1.0" encoding="UTF-8" standalone="no"?>
<svg
   width="464.24377pt"
   height="464.23862pt"
   version="1.1"
   viewBox="0 0 464.24377 464.23862"
   id="svg17"
   xmlns="http://www.w3.org/2000/svg"
   xmlns:svg="http://www.w3.org/2000/svg">
  <path
     d="m 149.59022,281.65728 131.98,-131.99 c 5.8945,-5.8906 14.484,-8.1953 22.535,-6.0352 8.0508,2.1562 14.34,8.4453 16.496,16.496 2.1602,8.0508 -0.14453,16.641 -6.0391,22.535 l -131.98,131.99 c -5.8945,5.8945 -14.484,8.1953 -22.535,6.0391 -8.0547,-2.1602 -14.34,-8.4492 -16.5,-16.5 -2.1562,-8.0508 0.14453,-16.641 6.0391,-22.535 z m 98.984,9.6602 c -6.1875,-0.004 -12.125,2.4531 -16.504,6.832 -4.375,4.375 -6.832,10.312 -6.8281,16.504 0.043,14.953 -5.8945,29.305 -16.496,39.852 l -42.66,42.656 c -17.684,17.688 -43.461,24.594 -67.621,18.121 -24.16,-6.4727 -43.031,-25.344 -49.504,-49.504 -6.4727,-24.16 0.43359,-49.938 18.121,-67.625 l 42.656,-42.656 c 10.547,-10.602 24.898,-16.539 39.852,-16.496 8.3359,0 16.039,-4.4453 20.207,-11.664 4.168,-7.2227 4.168,-16.117 0,-23.336 -4.168,-7.2188 -11.871,-11.664 -20.207,-11.664 -27.336,-0.0742 -53.566,10.789 -72.848,30.168 l -42.656,42.656 c -29.4219999,29.484 -40.8909999,72.414 -30.0979999,112.64 10.7969999,40.23 42.2189999,71.652 82.4489999,82.449 40.227,10.793 83.16,-0.67578 112.64,-30.098 l 42.656,-42.656 c 19.383,-19.277 30.25,-45.512 30.172,-72.848 0.004,-6.1914 -2.4531,-12.129 -6.832,-16.504 -4.375,-4.3789 -10.312,-6.8359 -16.504,-6.832 z m 16.496,-257.140005 -42.656,42.656 c -19.383,19.273 -30.25,45.504005 -30.168,72.836005 0,8.3398 4.4453,16.039 11.668,20.211 7.2188,4.168 16.113,4.168 23.332,0 7.2188,-4.1719 11.668,-11.871 11.668,-20.211 -0.0469,-14.945 5.8945,-29.289 16.496,-39.828 l 42.656,-42.668005 c 17.684,-17.688 43.465,-24.594 67.621,-18.121 24.16,6.4766 43.031,25.348 49.504,49.504 6.4727,24.160005 -0.43359,49.938005 -18.117,67.625005 l -42.656,42.645 c -10.543,10.609 -24.895,16.555 -39.852,16.508 -8.3398,0 -16.039,4.4492 -20.211,11.668 -4.168,7.2188 -4.168,16.113 0,23.332 4.1719,7.2188 11.871,11.668 20.211,11.668 27.336,0.0742 53.566,-10.789 72.848,-30.172 l 42.656,-42.656 c 29.473,-29.473 40.984,-72.43 30.195,-112.700005 -10.789,-40.262 -42.238,-71.707 -82.5,-82.4959997 -40.262,-10.789 -83.219,0.72266 -112.69,30.1949997 z"
     id="path15" />
</svg>
