<?xml version="1.0" encoding="UTF-8" standalone="no"?>
<svg
   width="412.36389pt"
   height="542.17877pt"
   version="1.1"
   viewBox="0 0 412.36389 542.17877"
   id="svg40"
   xmlns="http://www.w3.org/2000/svg"
   xmlns:svg="http://www.w3.org/2000/svg">
  <g
     id="g38"
     transform="translate(-143.8162,-8.4862)">
    <path
       d="m 526.48,82.305 h -52.605 c -5.0898,0 -8.4844,3.3945 -8.4844,8.4844 v 19.516 h -230.79 v -19.516 c 0,-5.0898 -3.3945,-8.4844 -8.4844,-8.4844 h -52.605 c -16.121,0 -29.695,13.574 -29.695,29.695 v 408.97 c 0,16.121 13.574,29.695 29.695,29.695 h 352.97 c 16.121,0 29.695,-13.574 29.695,-29.695 l 0.004,-408.12 c 0,-16.969 -13.578,-30.543 -29.699,-30.543 z m -365.7,439.51 v -408.97 c 0,-6.7891 5.9375,-12.727 12.727,-12.727 h 14.426 l -0.004,434.43 h -14.426 c -6.7852,0 -12.723,-5.9414 -12.723,-12.73 z m 44.121,-422.54 h 12.727 v 19.516 c 0,5.0898 3.3945,8.4844 8.4844,8.4844 h 247.76 c 5.0898,0 8.4844,-3.3945 8.4844,-8.4844 V 99.275 h 12.727 v 435.27 h -290.18 z m 334.3,422.54 c 0,6.7891 -5.9375,12.727 -12.727,12.727 h -14.426 l 0.004,-435.27 h 14.426 c 6.7891,0 12.727,5.9375 12.727,12.727 z"
       id="path24" />
    <path
       d="M 266.85,341.94 H 432.3 c 5.0898,0 8.4844,-3.3945 8.4844,-8.4844 v -47.516 c 0,-24.605 -20.363,-44.969 -44.969,-44.969 h -16.121 c -2.5469,0 -5.0898,1.6953 -6.7891,3.3945 -5.0898,7.6367 -13.574,11.879 -22.91,11.879 -9.332,0 -17.816,-4.2422 -22.91,-11.879 -1.6953,-2.5469 -4.2422,-3.3945 -6.7891,-3.3945 h -16.121 c -24.605,0 -44.969,20.363 -44.969,44.969 v 47.516 c -0.84375,5.0938 3.3984,8.4844 7.6406,8.4844 z m 8.4844,-56 c 0,-15.273 12.727,-28 28,-28 h 12.73 c 8.4844,9.332 21.211,15.273 33.938,15.273 12.727,0 25.453,-5.9375 33.938,-15.273 h 11.879 c 15.273,0 28,12.727 28,28 v 39.031 h -30.547 v -33.938 c 0,-5.0898 -3.3945,-8.4844 -8.4844,-8.4844 -5.0899,0 -8.4844,3.3945 -8.4844,8.4844 v 33.938 h -53.453 v -33.938 c 0,-5.0898 -3.3945,-8.4844 -8.4844,-8.4844 -5.0898,0 -8.4844,3.3945 -8.4844,8.4844 v 33.938 h -30.547 z"
       id="path26" />
    <path
       d="m 350,236.73 c 25.453,0 45.816,-20.363 45.816,-45.816 0,-25.453 -20.363,-45.816 -45.816,-45.816 -25.453,0 -45.816,20.363 -45.816,45.816 0,25.453 20.363,45.816 45.816,45.816 z m 0,-74.664 c 16.121,0 28.848,12.727 28.848,28.848 0,16.121 -12.727,28.848 -28.848,28.848 -16.121,0 -28.848,-12.727 -28.848,-28.848 0,-16.121 12.727,-28.848 28.848,-28.848 z"
       id="path28" />
    <path
       d="M 462,370.79 H 238 c -5.0898,0 -8.4844,3.3945 -8.4844,8.4844 0,5.0898 3.3945,8.4844 8.4844,8.4844 h 224 c 5.0898,0 8.4844,-3.3945 8.4844,-8.4844 0,-4.2422 -3.3945,-8.4844 -8.4844,-8.4844 z"
       id="path30" />
    <path
       d="M 462,425.94 H 238 c -5.0898,0 -8.4844,3.3945 -8.4844,8.4844 0,5.0899 3.3945,8.4844 8.4844,8.4844 h 224 c 5.0898,0 8.4844,-3.3945 8.4844,-8.4844 0,-4.2383 -3.3945,-8.4844 -8.4844,-8.4844 z"
       id="path32" />
    <path
       d="M 462,481.09 H 238 c -5.0898,0 -8.4844,3.3945 -8.4844,8.4844 0,5.0898 3.3945,8.4844 8.4844,8.4844 h 224 c 5.0898,0 8.4844,-3.3945 8.4844,-8.4844 0,-4.2422 -3.3945,-8.4844 -8.4844,-8.4844 z"
       id="path34" />
    <path
       d="m 253.27,102.67 h 192.61 c 5.0898,0 8.4844,-3.3945 8.4844,-8.4844 v -34.789 c 0,-5.0898 -3.3945,-8.4844 -8.4844,-8.4844 h -29.695 c -12.727,-26.305 -39.031,-42.426 -68.727,-42.426 -29.695,0 -56,16.969 -68.727,42.426 h -26.305 c -5.0898,0 -8.4844,3.3945 -8.4844,8.4844 v 34.789 c 0.84766,5.0898 5.0898,8.4844 9.332,8.4844 z m 95.031,-77.215 c 20.363,0 38.184,10.184 49.211,25.453 l -98.426,0.0039 c 11.031,-15.273 28.848,-25.457 49.215,-25.457 z m -86.547,42.426 h 175.64 v 17.816 h -175.64 z"
       id="path36" />
  </g>
</svg>
